<?xml version="1.0" standalone="no"?>
<!DOCTYPE svg PUBLIC "-//W3C//DTD SVG 1.1//EN"
  "http://www.w3.org/Graphics/SVG/1.1/DTD/svg11.dtd">
<svg width="56.89500427246094mm" height="48.96999740600585mm" viewBox="80.28700256347656 -87.5179977416992 56.89500427246094 48.96999740600585" xmlns="http://www.w3.org/2000/svg" version="1.1">
	<title>svgOutput</title>
	<desc>made with tinkercad</desc>
<path d="M 136.08099365234375 -84.30400085449217 L 136.1820068359375 -83.53099822998045 L 136.1820068359375 -81.9199981689453 L 136.1820068359375 -65.53600311279295 L 136.1820068359375 -49.15200042724608 L 136.1820068359375 -45.05599975585937 L 136.1820068359375 -42.5349998474121 L 136.08099365234375 -41.76499938964843 L 135.78599548339844 -41.04700088500976 L 135.71969604492188 -40.95999908447265 L 135.31500244140625 -40.42900085449218 L 134.7010040283203 -39.95399856567382 L 133.98500061035156 -39.653999328613274 L 133.2169952392578 -39.54800033569335 L 131.07200622558594 -39.54800033569335 L 122.87999725341797 -39.54800033569335 L 114.68800354003906 -39.54800033569335 L 106.49600219726562 -39.54800033569335 L 98.30400085449219 -39.54800033569335 L 90.11199951171875 -39.54800033569335 L 84.2699966430664 -39.54800033569335 L 83.49800109863281 -39.6500015258789 L 82.77899932861328 -39.94800186157226 L 82.77239227294922 -39.95308303833007 L 82.16100311279297 -40.42300033569335 L 81.91999816894531 -40.73772430419921 L 81.68699645996094 -41.041999816894524 L 81.38899993896484 -41.76200103759765 L 81.28700256347656 -42.5349998474121 L 81.28700256347656 -49.15200042724608 L 81.28700256347656 -65.53600311279295 L 81.28700256347656 -81.9199981689453 L 81.28700256347656 -83.53099822998045 L 81.38899993896484 -84.30400085449217 L 81.68699645996094 -85.02500152587889 L 81.91999816894531 -85.32878112792967 L 82.16100311279297 -85.6429977416992 L 82.64629364013672 -86.01599884033202 L 82.77899932861328 -86.1179962158203 L 83.49800109863281 -86.41600036621092 L 84.2699966430664 -86.5179977416992 L 86.01599884033203 -86.5179977416992 L 90.11199951171875 -86.5179977416992 L 90.15799713134766 -86.5179977416992 L 94.20800018310547 -86.5179977416992 L 98.30400085449219 -86.5179977416992 L 102.4000015258789 -86.5179977416992 L 106.49600219726562 -86.5179977416992 L 110.59200286865234 -86.5179977416992 L 114.68800354003906 -86.5179977416992 L 122.87999725341797 -86.5179977416992 L 126.97599792480469 -86.5179977416992 L 131.07200622558594 -86.5179977416992 L 133.19900512695312 -86.5179977416992 L 133.9709930419922 -86.41600036621092 L 134.6909942626953 -86.1179962158203 L 134.82369995117188 -86.01599884033202 L 134.8887481689453 -85.96600341796874 L 134.97378540039062 -85.90065002441405 L 135.16799926757812 -85.75137329101561 L 135.3090057373047 -85.6429977416992 L 135.7830047607422 -85.02500152587889 L 136.08099365234375 -84.30400085449217 M 132.0749969482422 -84.57599639892577 L 131.9510040283203 -84.03399658203124 L 131.9510040283203 -84.02899932861327 L 131.96507263183594 -83.96800231933592 L 132.0760040283203 -83.48699951171874 L 132.42300415039062 -83.05200195312499 L 132.9239959716797 -82.81199645996092 L 133.47999572753906 -82.81300354003905 L 133.97999572753906 -83.05599975585936 L 134.3249969482422 -83.49099731445311 L 134.43365478515625 -83.96800231933592 L 134.447998046875 -84.03099822998045 L 134.447998046875 -84.03399658203124 L 134.32400512695312 -84.57599639892577 L 133.97799682617188 -85.01100158691405 L 133.4770050048828 -85.25199890136717 L 132.9219970703125 -85.25199890136717 L 132.42100524902344 -85.01100158691405 L 132.0749969482422 -84.57599639892577 M 134.32400512695312 -42.58000183105468 L 133.97799682617188 -43.01499938964843 L 133.4770050048828 -43.25600051879882 L 132.9219970703125 -43.25600051879882 L 132.42100524902344 -43.01499938964843 L 132.0749969482422 -42.58000183105468 L 131.9510040283203 -42.03799819946288 L 131.9510040283203 -42.033000946044915 L 132.0760040283203 -41.49100112915038 L 132.42300415039062 -41.05599975585937 L 132.62339782714844 -40.95999908447265 L 132.9239959716797 -40.81600189208984 L 133.47999572753906 -40.81700134277343 L 133.7742462158203 -40.95999908447265 L 133.97999572753906 -41.06000137329101 L 134.3249969482422 -41.49499893188476 L 134.447998046875 -42.0349998474121 L 134.447998046875 -42.03799819946288 L 134.32400512695312 -42.58000183105468 M 127.03199768066406 -84.81700134277342 L 126.97599792480469 -84.77211761474608 L 126.89099884033203 -84.70400238037108 L 126.81199645996094 -84.54100036621092 L 126.81199645996094 -84.36100006103514 L 126.89099884033203 -84.19799804687499 L 126.97599792480469 -84.12988281249999 L 127.03199768066406 -84.08499908447264 L 127.20800018310547 -84.0449981689453 L 127.38400268554688 -84.08499908447264 L 127.5250015258789 -84.19799804687499 L 127.60399627685547 -84.36100006103514 L 127.60399627685547 -84.54100036621092 L 127.5250015258789 -84.70400238037108 L 127.38400268554688 -84.81700134277342 L 127.20800018310547 -84.85700225830077 L 127.03199768066406 -84.81700134277342 M 127.03199768066406 -82.81700134277342 L 126.97599792480469 -82.7725143432617 L 126.89099884033203 -82.70500183105467 L 126.81199645996094 -82.54199981689452 L 126.81199645996094 -82.36100006103514 L 126.89099884033203 -82.19799804687499 L 126.97599792480469 -82.12988281249999 L 127.03199768066406 -82.08499908447264 L 127.20800018310547 -82.0449981689453 L 127.38400268554688 -82.08499908447264 L 127.5250015258789 -82.19799804687499 L 127.60399627685547 -82.36100006103514 L 127.60399627685547 -82.54199981689452 L 127.5250015258789 -82.70500183105467 L 127.38400268554688 -82.81700134277342 L 127.20800018310547 -82.85800170898436 L 127.03199768066406 -82.81700134277342 M 127.03199768066406 -80.81700134277342 L 126.97599792480469 -80.7725143432617 L 126.89099884033203 -80.70500183105467 L 126.81199645996094 -80.54199981689452 L 126.81199645996094 -80.36100006103514 L 126.89099884033203 -80.19799804687499 L 126.97599792480469 -80.12988281249999 L 127.03199768066406 -80.08499908447264 L 127.20800018310547 -80.0449981689453 L 127.38400268554688 -80.08499908447264 L 127.5250015258789 -80.19799804687499 L 127.60399627685547 -80.36100006103514 L 127.60399627685547 -80.54199981689452 L 127.5250015258789 -80.70500183105467 L 127.38400268554688 -80.81700134277342 L 127.20800018310547 -80.85800170898436 L 127.03199768066406 -80.81700134277342 M 127.03199768066406 -78.81800079345702 L 126.97599792480469 -78.77311706542967 L 126.89099884033203 -78.70500183105467 L 126.81199645996094 -78.54199981689452 L 126.81199645996094 -78.36100006103514 L 126.89099884033203 -78.19799804687499 L 126.97599792480469 -78.12988281249999 L 127.03199768066406 -78.08499908447264 L 127.20800018310547 -78.0449981689453 L 127.38400268554688 -78.08499908447264 L 127.5250015258789 -78.19799804687499 L 127.60399627685547 -78.36100006103514 L 127.60399627685547 -78.54199981689452 L 127.5250015258789 -78.70500183105467 L 127.38400268554688 -78.81800079345702 L 127.20800018310547 -78.85800170898436 L 127.03199768066406 -78.81800079345702 M 128.05599975585938 -73.81600189208983 L 127.9453125 -73.72799682617186 L 127.73400115966797 -73.55999755859374 L 127.55599975585938 -73.18900299072264 L 127.55599975585938 -72.77700042724608 L 127.73400115966797 -72.40599822998045 L 128.05599975585938 -72.15000152587889 L 128.45599365234375 -72.05799865722655 L 128.85699462890625 -72.15000152587889 L 129.17799377441406 -72.40599822998045 L 129.35699462890625 -72.77700042724608 L 129.35699462890625 -73.18900299072264 L 129.17799377441406 -73.55999755859374 L 128.96734619140625 -73.72799682617186 L 128.85699462890625 -73.81600189208983 L 128.45599365234375 -73.90799713134764 L 128.05599975585938 -73.81600189208983 M 110.73200225830078 -84.93699645996092 L 110.59200286865234 -84.90518188476561 L 110.55599975585938 -84.89700317382811 L 110.41500091552734 -84.78399658203124 L 110.33599853515625 -84.62100219726561 L 110.33599853515625 -84.44100189208983 L 110.41500091552734 -84.27799987792967 L 110.55599975585938 -84.16500091552733 L 110.59200286865234 -84.1568145751953 L 110.73200225830078 -84.12499999999999 L 110.90799713134766 -84.16500091552733 L 111.04900360107422 -84.27799987792967 L 111.12799835205078 -84.44100189208983 L 111.12799835205078 -84.62100219726561 L 111.04900360107422 -84.78399658203124 L 110.90799713134766 -84.89700317382811 L 110.73200225830078 -84.93699645996092 M 110.73200225830078 -82.93800354003905 L 110.59200286865234 -82.90538787841795 L 110.55599975585938 -82.89700317382811 L 110.41500091552734 -82.78500366210936 L 110.33599853515625 -82.6220016479492 L 110.33599853515625 -82.44100189208983 L 110.41500091552734 -82.27799987792967 L 110.55599975585938 -82.16500091552733 L 110.59200286865234 -82.1568145751953 L 110.73200225830078 -82.12499999999999 L 110.90799713134766 -82.16500091552733 L 111.04900360107422 -82.27799987792967 L 111.12799835205078 -82.44100189208983 L 111.12799835205078 -82.6220016479492 L 111.04900360107422 -82.78500366210936 L 110.90799713134766 -82.89700317382811 L 110.73200225830078 -82.93800354003905 M 103.56600189208984 -84.16500091552733 L 103.74199676513672 -84.12499999999999 L 103.91799926757812 -84.16500091552733 L 104.05899810791016 -84.27799987792967 L 104.13800048828125 -84.44100189208983 L 104.13800048828125 -84.62100219726561 L 104.05899810791016 -84.78399658203124 L 103.91799926757812 -84.89700317382811 L 103.74199676513672 -84.93699645996092 L 103.56600189208984 -84.89700317382811 L 103.42500305175781 -84.78399658203124 L 103.34600067138672 -84.62100219726561 L 103.34600067138672 -84.44100189208983 L 103.42500305175781 -84.27799987792967 L 103.56600189208984 -84.16500091552733 M 103.56600189208984 -82.16500091552733 L 103.74199676513672 -82.12499999999999 L 103.91799926757812 -82.16500091552733 L 104.05899810791016 -82.27799987792967 L 104.13800048828125 -82.44100189208983 L 104.13800048828125 -82.6220016479492 L 104.05899810791016 -82.78500366210936 L 103.91799926757812 -82.89700317382811 L 103.74199676513672 -82.93800354003905 L 103.56600189208984 -82.89700317382811 L 103.42500305175781 -82.78500366210936 L 103.34600067138672 -82.6220016479492 L 103.34600067138672 -82.44100189208983 L 103.42500305175781 -82.27799987792967 L 103.56600189208984 -82.16500091552733 M 110.55599975585938 -80.16500091552733 L 110.73200225830078 -80.12499999999999 L 110.90799713134766 -80.16500091552733 L 111.04900360107422 -80.27799987792967 L 111.12799835205078 -80.44100189208983 L 111.12799835205078 -80.6220016479492 L 111.04900360107422 -80.78500366210936 L 110.90799713134766 -80.89700317382811 L 110.73200225830078 -80.93800354003905 L 110.55599975585938 -80.89700317382811 L 110.41500091552734 -80.78500366210936 L 110.33599853515625 -80.6220016479492 L 110.33599853515625 -80.44100189208983 L 110.41500091552734 -80.27799987792967 L 110.55599975585938 -80.16500091552733 M 112.0790023803711 -73.81600189208983 L 111.96831512451172 -73.72799682617186 L 111.75700378417969 -73.55999755859374 L 111.5790023803711 -73.18900299072264 L 111.5790023803711 -72.77700042724608 L 111.75700378417969 -72.40599822998045 L 112.0790023803711 -72.15000152587889 L 112.47899627685547 -72.05799865722655 L 112.87999725341797 -72.15000152587889 L 113.2020034790039 -72.40599822998045 L 113.37999725341797 -72.77700042724608 L 113.37999725341797 -73.18900299072264 L 113.2020034790039 -73.55999755859374 L 112.99068450927734 -73.72799682617186 L 112.87999725341797 -73.81600189208983 L 112.47899627685547 -73.90799713134764 L 112.0790023803711 -73.81600189208983 M 103.56600189208984 -80.16500091552733 L 103.74199676513672 -80.12499999999999 L 103.91799926757812 -80.16500091552733 L 104.05899810791016 -80.27799987792967 L 104.13800048828125 -80.44100189208983 L 104.13800048828125 -80.6220016479492 L 104.05899810791016 -80.78500366210936 L 103.91799926757812 -80.89700317382811 L 103.74199676513672 -80.93800354003905 L 103.56600189208984 -80.89700317382811 L 103.42500305175781 -80.78500366210936 L 103.34600067138672 -80.6220016479492 L 103.34600067138672 -80.44100189208983 L 103.42500305175781 -80.27799987792967 L 103.56600189208984 -80.16500091552733 M 103.83999633789062 -72.15000152587889 L 104.24099731445312 -72.05799865722655 L 104.64199829101562 -72.15000152587889 L 104.96299743652344 -72.40599822998045 L 105.14199829101562 -72.77700042724608 L 105.14199829101562 -73.18900299072264 L 104.96299743652344 -73.55999755859374 L 104.7523422241211 -73.72799682617186 L 104.64199829101562 -73.81600189208983 L 104.24099731445312 -73.90799713134764 L 103.83999633789062 -73.81600189208983 L 103.72966003417969 -73.72799682617186 L 103.51899719238281 -73.55999755859374 L 103.34100341796875 -73.18900299072264 L 103.34100341796875 -72.77700042724608 L 103.51899719238281 -72.40599822998045 L 103.83999633789062 -72.15000152587889 M 128.05599975585938 -52.401000976562486 L 128.45599365234375 -52.30899810791014 L 128.85699462890625 -52.401000976562486 L 129.17799377441406 -52.657001495361314 L 129.35699462890625 -53.02799987792967 L 129.35699462890625 -53.43999862670897 L 129.17799377441406 -53.811000823974595 L 128.85699462890625 -54.06700134277342 L 128.45599365234375 -54.1590003967285 L 128.05599975585938 -54.06700134277342 L 127.73400115966797 -53.811000823974595 L 127.55599975585938 -53.43999862670897 L 127.55599975585938 -53.02799987792967 L 127.73400115966797 -52.657001495361314 L 128.05599975585938 -52.401000976562486 M 127.03199768066406 -47.99100112915038 L 126.97599792480469 -47.946121215820305 L 126.89099884033203 -47.877998352050774 L 126.81199645996094 -47.71500015258788 L 126.81199645996094 -47.53400039672851 L 126.89099884033203 -47.37099838256835 L 126.97599792480469 -47.30287933349609 L 127.03199768066406 -47.25799942016601 L 127.20800018310547 -47.217998504638665 L 127.38400268554688 -47.25799942016601 L 127.5250015258789 -47.37099838256835 L 127.60399627685547 -47.53400039672851 L 127.60399627685547 -47.71500015258788 L 127.5250015258789 -47.877998352050774 L 127.38400268554688 -47.99100112915038 L 127.20800018310547 -48.030998229980455 L 127.03199768066406 -47.99100112915038 M 127.03199768066406 -45.99100112915038 L 126.97599792480469 -45.946121215820305 L 126.89099884033203 -45.877998352050774 L 126.81199645996094 -45.71500015258788 L 126.81199645996094 -45.53400039672851 L 126.89099884033203 -45.37099838256835 L 126.97599792480469 -45.303482055664055 L 127.03199768066406 -45.2589988708496 L 127.20800018310547 -45.217998504638665 L 127.38400268554688 -45.2589988708496 L 127.5250015258789 -45.37099838256835 L 127.60399627685547 -45.53400039672851 L 127.60399627685547 -45.71500015258788 L 127.5250015258789 -45.877998352050774 L 127.38400268554688 -45.99100112915038 L 127.20800018310547 -46.03099822998046 L 127.03199768066406 -45.99100112915038 M 127.03199768066406 -43.99100112915038 L 126.97599792480469 -43.946121215820305 L 126.89099884033203 -43.877998352050774 L 126.81199645996094 -43.71500015258788 L 126.81199645996094 -43.53400039672851 L 126.89099884033203 -43.37099838256835 L 126.97599792480469 -43.303482055664055 L 127.03199768066406 -43.2589988708496 L 127.20800018310547 -43.217998504638665 L 127.38400268554688 -43.2589988708496 L 127.5250015258789 -43.37099838256835 L 127.60399627685547 -43.53400039672851 L 127.60399627685547 -43.71500015258788 L 127.5250015258789 -43.877998352050774 L 127.38400268554688 -43.99100112915038 L 127.20800018310547 -44.03099822998046 L 127.03199768066406 -43.99100112915038 M 127.03199768066406 -41.99100112915038 L 126.97599792480469 -41.946121215820305 L 126.89099884033203 -41.877998352050774 L 126.81199645996094 -41.71500015258788 L 126.81199645996094 -41.5349998474121 L 126.89099884033203 -41.37200164794921 L 126.97599792480469 -41.30387878417968 L 127.03199768066406 -41.2589988708496 L 127.20800018310547 -41.219001770019524 L 127.38400268554688 -41.2589988708496 L 127.5250015258789 -41.37200164794921 L 127.60399627685547 -41.5349998474121 L 127.60399627685547 -41.71500015258788 L 127.5250015258789 -41.877998352050774 L 127.38400268554688 -41.99100112915038 L 127.20800018310547 -42.03099822998046 L 127.03199768066406 -41.99100112915038 M 112.0790023803711 -52.401000976562486 L 112.47899627685547 -52.30899810791014 L 112.87999725341797 -52.401000976562486 L 113.2020034790039 -52.657001495361314 L 113.37999725341797 -53.02799987792967 L 113.37999725341797 -53.43999862670897 L 113.2020034790039 -53.811000823974595 L 112.87999725341797 -54.06700134277342 L 112.47899627685547 -54.1590003967285 L 112.0790023803711 -54.06700134277342 L 111.75700378417969 -53.811000823974595 L 111.5790023803711 -53.43999862670897 L 111.5790023803711 -53.02799987792967 L 111.75700378417969 -52.657001495361314 L 112.0790023803711 -52.401000976562486 M 103.34100341796875 -53.43999862670897 L 103.34100341796875 -53.2480010986328 L 103.34100341796875 -53.02799987792967 L 103.51899719238281 -52.657001495361314 L 103.83999633789062 -52.401000976562486 L 104.24099731445312 -52.30899810791014 L 104.64199829101562 -52.401000976562486 L 104.96299743652344 -52.657001495361314 L 105.14199829101562 -53.02799987792967 L 105.14199829101562 -53.2480010986328 L 105.14199829101562 -53.43999862670897 L 104.96299743652344 -53.811000823974595 L 104.64199829101562 -54.06700134277342 L 104.24099731445312 -54.1590003967285 L 103.83999633789062 -54.06700134277342 L 103.51899719238281 -53.811000823974595 L 103.34100341796875 -53.43999862670897 M 100.34300231933594 -50.23600006103514 L 100.5270004272461 -50.19300079345702 L 100.71099853515625 -50.23600006103514 L 100.85900115966797 -50.353000640869126 L 100.94000244140625 -50.52399826049803 L 100.94000244140625 -50.71300125122069 L 100.85900115966797 -50.882999420166 L 100.71099853515625 -51.00099945068358 L 100.5270004272461 -51.04299926757811 L 100.34300231933594 -51.00099945068358 L 100.19499969482422 -50.882999420166 L 100.11299896240234 -50.71300125122069 L 100.11299896240234 -50.52399826049803 L 100.19499969482422 -50.353000640869126 L 100.34300231933594 -50.23600006103514 M 110.55599975585938 -45.16899871826171 L 110.73200225830078 -45.127998352050774 L 110.90799713134766 -45.16899871826171 L 111.04900360107422 -45.28099822998046 L 111.12799835205078 -45.44400024414062 L 111.12799835205078 -45.62499999999999 L 111.04900360107422 -45.78799819946288 L 110.90799713134766 -45.90100097656249 L 110.73200225830078 -45.94100189208984 L 110.55599975585938 -45.90100097656249 L 110.41500091552734 -45.78799819946288 L 110.33599853515625 -45.62499999999999 L 110.33599853515625 -45.44400024414062 L 110.41500091552734 -45.28099822998046 L 110.55599975585938 -45.16899871826171 M 110.73200225830078 -43.94100189208984 L 110.59200286865234 -43.90918350219726 L 110.55599975585938 -43.90100097656249 L 110.41500091552734 -43.78799819946288 L 110.33599853515625 -43.62499999999999 L 110.33599853515625 -43.44400024414062 L 110.41500091552734 -43.28099822998046 L 110.55599975585938 -43.16899871826171 L 110.59200286865234 -43.16061401367187 L 110.73200225830078 -43.127998352050774 L 110.90799713134766 -43.16899871826171 L 111.04900360107422 -43.28099822998046 L 111.12799835205078 -43.44400024414062 L 111.12799835205078 -43.62499999999999 L 111.04900360107422 -43.78799819946288 L 110.90799713134766 -43.90100097656249 L 110.73200225830078 -43.94100189208984 M 110.73200225830078 -41.94100189208984 L 110.59200286865234 -41.90918350219726 L 110.55599975585938 -41.90100097656249 L 110.41500091552734 -41.78799819946288 L 110.33599853515625 -41.62499999999999 L 110.33599853515625 -41.44499969482421 L 110.41500091552734 -41.28200149536132 L 110.55599975585938 -41.16899871826171 L 110.59200286865234 -41.16082000732421 L 110.73200225830078 -41.12900161743163 L 110.90799713134766 -41.16899871826171 L 111.04900360107422 -41.28200149536132 L 111.12799835205078 -41.44499969482421 L 111.12799835205078 -41.62499999999999 L 111.04900360107422 -41.78799819946288 L 110.90799713134766 -41.90100097656249 L 110.73200225830078 -41.94100189208984 M 103.56600189208984 -45.16899871826171 L 103.74199676513672 -45.127998352050774 L 103.91799926757812 -45.16899871826171 L 104.05899810791016 -45.28099822998046 L 104.13800048828125 -45.44400024414062 L 104.13800048828125 -45.62499999999999 L 104.05899810791016 -45.78799819946288 L 103.91799926757812 -45.90100097656249 L 103.74199676513672 -45.94100189208984 L 103.56600189208984 -45.90100097656249 L 103.42500305175781 -45.78799819946288 L 103.34600067138672 -45.62499999999999 L 103.34600067138672 -45.44400024414062 L 103.42500305175781 -45.28099822998046 L 103.56600189208984 -45.16899871826171 M 103.56600189208984 -43.16899871826171 L 103.74199676513672 -43.127998352050774 L 103.91799926757812 -43.16899871826171 L 104.05899810791016 -43.28099822998046 L 104.13800048828125 -43.44400024414062 L 104.13800048828125 -43.62499999999999 L 104.05899810791016 -43.78799819946288 L 103.91799926757812 -43.90100097656249 L 103.74199676513672 -43.94100189208984 L 103.56600189208984 -43.90100097656249 L 103.42500305175781 -43.78799819946288 L 103.34600067138672 -43.62499999999999 L 103.34600067138672 -43.44400024414062 L 103.42500305175781 -43.28099822998046 L 103.56600189208984 -43.16899871826171 M 103.56600189208984 -41.16899871826171 L 103.74199676513672 -41.12900161743163 L 103.91799926757812 -41.16899871826171 L 104.05899810791016 -41.28200149536132 L 104.13800048828125 -41.44499969482421 L 104.13800048828125 -41.62499999999999 L 104.05899810791016 -41.78799819946288 L 103.91799926757812 -41.90100097656249 L 103.74199676513672 -41.94100189208984 L 103.56600189208984 -41.90100097656249 L 103.42500305175781 -41.78799819946288 L 103.34600067138672 -41.62499999999999 L 103.34600067138672 -41.44499969482421 L 103.42500305175781 -41.28200149536132 L 103.56600189208984 -41.16899871826171 M 96.57599639892578 -84.16500091552733 L 96.75199890136719 -84.12499999999999 L 96.9280014038086 -84.16500091552733 L 97.06900024414062 -84.27799987792967 L 97.14800262451172 -84.44100189208983 L 97.14800262451172 -84.62100219726561 L 97.06900024414062 -84.78399658203124 L 96.9280014038086 -84.89700317382811 L 96.75199890136719 -84.93699645996092 L 96.57599639892578 -84.89700317382811 L 96.43499755859375 -84.78399658203124 L 96.35600280761719 -84.62100219726561 L 96.35600280761719 -84.44100189208983 L 96.43499755859375 -84.27799987792967 L 96.57599639892578 -84.16500091552733 M 96.57599639892578 -82.16500091552733 L 96.75199890136719 -82.12499999999999 L 96.9280014038086 -82.16500091552733 L 97.06900024414062 -82.27799987792967 L 97.14800262451172 -82.44100189208983 L 97.14800262451172 -82.6220016479492 L 97.06900024414062 -82.78500366210936 L 96.9280014038086 -82.89700317382811 L 96.75199890136719 -82.93800354003905 L 96.57599639892578 -82.89700317382811 L 96.43499755859375 -82.78500366210936 L 96.35600280761719 -82.6220016479492 L 96.35600280761719 -82.44100189208983 L 96.43499755859375 -82.27799987792967 L 96.57599639892578 -82.16500091552733 M 90.11199951171875 -82.34487152099608 L 90.15799713134766 -82.44100189208983 L 90.15799713134766 -82.6220016479492 L 90.11199951171875 -82.71813201904295 L 90.08000183105469 -82.78500366210936 L 89.93800354003906 -82.89700317382811 L 89.76200103759766 -82.93800354003905 L 89.58599853515625 -82.89700317382811 L 89.44499969482422 -82.78500366210936 L 89.36699676513672 -82.6220016479492 L 89.36699676513672 -82.44100189208983 L 89.44499969482422 -82.27799987792967 L 89.58599853515625 -82.16500091552733 L 89.76200103759766 -82.12499999999999 L 89.93800354003906 -82.16500091552733 L 90.08000183105469 -82.27799987792967 L 90.11199951171875 -82.34487152099608 M 90.11199951171875 -84.34487152099608 L 90.15799713134766 -84.44100189208983 L 90.15799713134766 -84.62100219726561 L 90.11199951171875 -84.71712493896483 L 90.08000183105469 -84.78399658203124 L 89.93800354003906 -84.89700317382811 L 89.76200103759766 -84.93699645996092 L 89.58599853515625 -84.89700317382811 L 89.44499969482422 -84.78399658203124 L 89.36699676513672 -84.62100219726561 L 89.36699676513672 -84.44100189208983 L 89.44499969482422 -84.27799987792967 L 89.58599853515625 -84.16500091552733 L 89.76200103759766 -84.12499999999999 L 89.93800354003906 -84.16500091552733 L 90.08000183105469 -84.27799987792967 L 90.11199951171875 -84.34487152099608 M 85.01699829101562 -85.0189971923828 L 84.53700256347656 -85.25099945068358 L 84.00399780273438 -85.25099945068358 L 83.52300262451172 -85.0189971923828 L 83.19100189208984 -84.60199737548827 L 83.0719985961914 -84.08100128173827 L 83.0719985961914 -83.98100280761717 L 83.0749740600586 -83.96800231933592 L 83.19100189208984 -83.46099853515624 L 83.52300262451172 -83.04299926757811 L 84.00399780273438 -82.81099700927733 L 84.53700256347656 -82.81099700927733 L 85.01699829101562 -83.04299926757811 L 85.3499984741211 -83.46099853515624 L 85.46504974365234 -83.96800231933592 L 85.46800231933594 -83.98100280761717 L 85.46800231933594 -84.08100128173827 L 85.3499984741211 -84.60199737548827 L 85.01699829101562 -85.0189971923828 M 96.57599639892578 -80.16500091552733 L 96.75199890136719 -80.12499999999999 L 96.9280014038086 -80.16500091552733 L 97.06900024414062 -80.27799987792967 L 97.14800262451172 -80.44100189208983 L 97.14800262451172 -80.6220016479492 L 97.06900024414062 -80.78500366210936 L 96.9280014038086 -80.89700317382811 L 96.75199890136719 -80.93800354003905 L 96.57599639892578 -80.89700317382811 L 96.43499755859375 -80.78500366210936 L 96.35600280761719 -80.6220016479492 L 96.35600280761719 -80.44100189208983 L 96.43499755859375 -80.27799987792967 L 96.57599639892578 -80.16500091552733 M 90.11199951171875 -80.34487152099608 L 90.15799713134766 -80.44100189208983 L 90.15799713134766 -80.6220016479492 L 90.11199951171875 -80.71813201904295 L 90.08000183105469 -80.78500366210936 L 89.93800354003906 -80.89700317382811 L 89.76200103759766 -80.93800354003905 L 89.58599853515625 -80.89700317382811 L 89.44499969482422 -80.78500366210936 L 89.36699676513672 -80.6220016479492 L 89.36699676513672 -80.44100189208983 L 89.44499969482422 -80.27799987792967 L 89.58599853515625 -80.16500091552733 L 89.76200103759766 -80.12499999999999 L 89.93800354003906 -80.16500091552733 L 90.08000183105469 -80.27799987792967 L 90.11199951171875 -80.34487152099608 M 83.84700012207031 -81.64199829101561 L 83.70800018310547 -81.53099822998045 L 83.63099670410156 -81.37000274658202 L 83.63099670410156 -81.19200134277342 L 83.70800018310547 -81.03199768066405 L 83.84700012207031 -80.92099761962889 L 84.02100372314453 -80.88099670410155 L 84.91899871826172 -80.88099670410155 L 85.09300231933594 -80.92099761962889 L 85.23200225830078 -81.03199768066405 L 85.30899810791016 -81.19200134277342 L 85.30899810791016 -81.37000274658202 L 85.23200225830078 -81.53099822998045 L 85.09300231933594 -81.64199829101561 L 84.91899871826172 -81.68099975585936 L 84.02100372314453 -81.68099975585936 L 83.84700012207031 -81.64199829101561 M 83.83699798583984 -77.88700103759764 L 83.86717224121094 -77.82399749755858 L 83.96199798583984 -77.62599945068358 L 84.18800354003906 -77.4459991455078 L 84.47000122070312 -77.38200378417967 L 84.75199890136719 -77.4459991455078 L 84.97699737548828 -77.62599945068358 L 85.07258605957031 -77.82399749755858 L 85.10299682617188 -77.88700103759764 L 85.10299682617188 -78.17600250244139 L 84.97699737548828 -78.43699645996092 L 84.75199890136719 -78.6169967651367 L 84.47000122070312 -78.68199920654295 L 84.18800354003906 -78.6169967651367 L 83.96199798583984 -78.43699645996092 L 83.83699798583984 -78.17600250244139 L 83.83699798583984 -77.88700103759764 M 87.86399841308594 -73.81600189208983 L 87.75331115722656 -73.72799682617186 L 87.54199981689453 -73.55999755859374 L 87.36399841308594 -73.18900299072264 L 87.36399841308594 -72.77700042724608 L 87.54199981689453 -72.40599822998045 L 87.86399841308594 -72.15000152587889 L 88.26399993896484 -72.05799865722655 L 88.66500091552734 -72.15000152587889 L 88.98699951171875 -72.40599822998045 L 89.16500091552734 -72.77700042724608 L 89.16500091552734 -73.18900299072264 L 88.98699951171875 -73.55999755859374 L 88.77568817138672 -73.72799682617186 L 88.66500091552734 -73.81600189208983 L 88.26399993896484 -73.90799713134764 L 87.86399841308594 -73.81600189208983 M 84.18800354003906 -74.4459991455078 L 84.47000122070312 -74.38200378417967 L 84.75199890136719 -74.4459991455078 L 84.97699737548828 -74.62699890136717 L 85.10299682617188 -74.88700103759764 L 85.10299682617188 -75.17600250244139 L 84.97699737548828 -75.43699645996092 L 84.75199890136719 -75.6169967651367 L 84.47000122070312 -75.68199920654295 L 84.18800354003906 -75.6169967651367 L 83.96199798583984 -75.43699645996092 L 83.83699798583984 -75.17600250244139 L 83.83699798583984 -74.88700103759764 L 83.96199798583984 -74.62699890136717 L 84.18800354003906 -74.4459991455078 M 84.18800354003906 -71.44699859619139 L 84.47000122070312 -71.38200378417967 L 84.75199890136719 -71.44699859619139 L 84.97699737548828 -71.62699890136717 L 85.10299682617188 -71.88800048828124 L 85.10299682617188 -72.17700195312499 L 84.97699737548828 -72.43699645996092 L 84.75199890136719 -72.6179962158203 L 84.47000122070312 -72.68199920654295 L 84.18800354003906 -72.6179962158203 L 83.96199798583984 -72.43699645996092 L 83.83699798583984 -72.17700195312499 L 83.83699798583984 -71.88800048828124 L 83.96199798583984 -71.62699890136717 L 84.18800354003906 -71.44699859619139 M 88.64199829101562 -67.40699768066405 L 88.72899627685547 -67.47699737548827 L 88.7770004272461 -67.57700347900389 L 88.7770004272461 -67.58399963378905 L 88.7770004272461 -67.68800354003905 L 88.72899627685547 -67.78800201416014 L 88.64199829101562 -67.85800170898436 L 88.53399658203125 -67.88300323486327 L 87.73500061035156 -67.88300323486327 L 87.62699890136719 -67.85800170898436 L 87.54000091552734 -67.78800201416014 L 87.49199676513672 -67.68800354003905 L 87.49199676513672 -67.58399963378905 L 87.49199676513672 -67.57700347900389 L 87.54000091552734 -67.47699737548827 L 87.62699890136719 -67.40699768066405 L 87.73500061035156 -67.38300323486327 L 88.06400299072266 -67.38300323486327 L 88.53399658203125 -67.38300323486327 L 88.64199829101562 -67.40699768066405 M 89.06600189208984 -66.70500183105467 L 89.06600189208984 -66.55999755859374 L 89.08799743652344 -66.5146026611328 L 89.12899780273438 -66.43000030517577 L 89.24199676513672 -66.33999633789061 L 89.38300323486328 -66.30799865722655 L 89.52400207519531 -66.33999633789061 L 89.63600158691406 -66.43000030517577 L 89.6989974975586 -66.55999755859374 L 89.6989974975586 -66.70500183105467 L 89.63600158691406 -66.83499908447264 L 89.52400207519531 -66.9250030517578 L 89.38300323486328 -66.95800018310545 L 89.24199676513672 -66.9250030517578 L 89.12899780273438 -66.83499908447264 L 89.06600189208984 -66.70500183105467 M 88.65699768066406 -65.65299987792967 L 88.74400329589844 -65.63300323486327 L 88.83000183105469 -65.65299987792967 L 88.9000015258789 -65.70800018310545 L 88.93800354003906 -65.78800201416014 L 88.93800354003906 -65.87699890136717 L 88.9000015258789 -65.95700073242186 L 88.83000183105469 -66.01300048828124 L 88.74400329589844 -66.03299713134764 L 88.65699768066406 -66.01300048828124 L 88.58799743652344 -65.95700073242186 L 88.57599639892578 -65.93238830566405 L 88.54900360107422 -65.87699890136717 L 88.54900360107422 -65.78800201416014 L 88.57599639892578 -65.73261260986327 L 88.58799743652344 -65.70800018310545 L 88.65699768066406 -65.65299987792967 M 87.88899993896484 -65.55699920654295 L 87.8787612915039 -65.53600311279295 L 87.8499984741211 -65.47699737548827 L 87.8499984741211 -65.38800048828124 L 87.88899993896484 -65.30799865722655 L 87.95800018310547 -65.25299835205077 L 88.04499816894531 -65.23300170898436 L 88.06400299072266 -65.23741912841795 L 88.13099670410156 -65.25299835205077 L 88.20099639892578 -65.30799865722655 L 88.23899841308594 -65.38800048828124 L 88.23899841308594 -65.47699737548827 L 88.21097564697266 -65.53600311279295 L 88.20099639892578 -65.55699920654295 L 88.13099670410156 -65.61299896240233 L 88.06400299072266 -65.62857818603514 L 88.04499816894531 -65.63300323486327 L 87.95800018310547 -65.61299896240233 L 87.88899993896484 -65.55699920654295 M 84.63999938964844 -67.88300323486327 L 83.96800231933594 -67.88300323486327 L 83.64099884033203 -67.88300323486327 L 83.53299713134766 -67.85800170898436 L 83.44599914550781 -67.78800201416014 L 83.39800262451172 -67.68800354003905 L 83.39800262451172 -67.58399963378905 L 83.39800262451172 -67.57700347900389 L 83.44599914550781 -67.47699737548827 L 83.53299713134766 -67.40699768066405 L 83.64099884033203 -67.38300323486327 L 84.63999938964844 -67.38300323486327 L 84.74800109863281 -67.40699768066405 L 84.83499908447266 -67.47699737548827 L 84.88300323486328 -67.57700347900389 L 84.88300323486328 -67.58399963378905 L 84.88300323486328 -67.68800354003905 L 84.83499908447266 -67.78800201416014 L 84.74800109863281 -67.85800170898436 L 84.63999938964844 -67.88300323486327 M 83.84700012207031 -68.42199707031249 L 83.96800231933594 -68.39488220214842 L 84.02100372314453 -68.38300323486327 L 84.91899871826172 -68.38300323486327 L 85.09300231933594 -68.42199707031249 L 85.23200225830078 -68.53299713134764 L 85.30899810791016 -68.69300079345702 L 85.30899810791016 -68.8720016479492 L 85.23200225830078 -69.03199768066405 L 85.09300231933594 -69.1429977416992 L 84.91899871826172 -69.18199920654295 L 84.02100372314453 -69.18199920654295 L 83.96800231933594 -69.1701202392578 L 83.84700012207031 -69.1429977416992 L 83.70800018310547 -69.03199768066405 L 83.63099670410156 -68.8720016479492 L 83.63099670410156 -68.69300079345702 L 83.70800018310547 -68.53299713134764 L 83.84700012207031 -68.42199707031249 M 88.13099670410156 -64.81300354003905 L 88.06400299072266 -64.82858276367186 L 88.04499816894531 -64.83300018310545 L 87.95800018310547 -64.81300354003905 L 87.88899993896484 -64.75800323486327 L 87.8499984741211 -64.67700195312499 L 87.8499984741211 -64.58799743652342 L 87.88704681396484 -64.51200103759764 L 87.88899993896484 -64.50800323486327 L 87.95800018310547 -64.45300292968749 L 88.04499816894531 -64.43299865722655 L 88.06400299072266 -64.43741607666014 L 88.13099670410156 -64.45300292968749 L 88.20099639892578 -64.50800323486327 L 88.2029037475586 -64.51200103759764 L 88.23899841308594 -64.58799743652342 L 88.23899841308594 -64.67700195312499 L 88.20099639892578 -64.75800323486327 L 88.13099670410156 -64.81300354003905 M 88.65699768066406 -64.05300140380858 L 88.74400329589844 -64.03299713134764 L 88.83000183105469 -64.05300140380858 L 88.9000015258789 -64.10800170898436 L 88.93800354003906 -64.18800354003905 L 88.93800354003906 -64.27700042724608 L 88.9000015258789 -64.35800170898436 L 88.83000183105469 -64.41300201416014 L 88.74400329589844 -64.43299865722655 L 88.65699768066406 -64.41300201416014 L 88.58799743652344 -64.35800170898436 L 88.57599639892578 -64.33307647705077 L 88.54900360107422 -64.27700042724608 L 88.54900360107422 -64.18800354003905 L 88.57599639892578 -64.13261413574217 L 88.58799743652344 -64.10800170898436 L 88.65699768066406 -64.05300140380858 M 88.13099670410156 -64.01300048828124 L 88.06400299072266 -64.02857971191405 L 88.04499816894531 -64.03299713134764 L 87.95800018310547 -64.01300048828124 L 87.88899993896484 -63.958000183105455 L 87.8499984741211 -63.87699890136717 L 87.8499984741211 -63.787998199462876 L 87.88899993896484 -63.708000183105455 L 87.95800018310547 -63.65299987792967 L 88.04499816894531 -63.632999420166 L 88.06400299072266 -63.637416839599595 L 88.13099670410156 -63.65299987792967 L 88.20099639892578 -63.708000183105455 L 88.22293090820312 -63.754177093505845 L 88.23899841308594 -63.787998199462876 L 88.23899841308594 -63.87699890136717 L 88.20099639892578 -63.958000183105455 L 88.14754486083984 -63.999999999999986 L 88.13099670410156 -64.01300048828124 M 88.58799743652344 -63.55799865722655 L 88.5542984008789 -63.48799896240233 L 88.54900360107422 -63.47700119018553 L 88.54900360107422 -63.388000488281236 L 88.58799743652344 -63.30799865722655 L 88.65699768066406 -63.25299835205077 L 88.74400329589844 -63.23300170898436 L 88.83000183105469 -63.25299835205077 L 88.9000015258789 -63.30799865722655 L 88.93800354003906 -63.388000488281236 L 88.93800354003906 -63.47700119018553 L 88.9328384399414 -63.48799896240233 L 88.9000015258789 -63.55799865722655 L 88.83000183105469 -63.61299896240233 L 88.74400329589844 -63.632999420166 L 88.65699768066406 -63.61299896240233 L 88.58799743652344 -63.55799865722655 M 88.58799743652344 -62.507999420166 L 88.64320373535156 -62.46400070190428 L 88.65699768066406 -62.45299911499022 L 88.74400329589844 -62.43299865722655 L 88.83000183105469 -62.45299911499022 L 88.84400177001953 -62.46400070190428 L 88.9000015258789 -62.507999420166 L 88.93800354003906 -62.58900070190428 L 88.93800354003906 -62.67800140380858 L 88.9000015258789 -62.757999420166 L 88.83000183105469 -62.81299972534178 L 88.74400329589844 -62.833000183105455 L 88.65699768066406 -62.81299972534178 L 88.58799743652344 -62.757999420166 L 88.54900360107422 -62.67800140380858 L 88.54900360107422 -62.58900070190428 L 88.58799743652344 -62.507999420166 M 88.13099670410156 -62.412998199462876 L 88.06400299072266 -62.428581237792955 L 88.04499816894531 -62.43299865722655 L 87.95800018310547 -62.412998199462876 L 87.88899993896484 -62.35800170898436 L 87.8499984741211 -62.27799987792967 L 87.8499984741211 -62.188999176025376 L 87.88899993896484 -62.10800170898436 L 87.95800018310547 -62.05300140380858 L 88.04499816894531 -62.03300094604491 L 88.06400299072266 -62.0374183654785 L 88.13099670410156 -62.05300140380858 L 88.20099639892578 -62.10800170898436 L 88.22268676757812 -62.154235839843736 L 88.23899841308594 -62.188999176025376 L 88.23899841308594 -62.27799987792967 L 88.22293090820312 -62.311820983886705 L 88.20099639892578 -62.35800170898436 L 88.13099670410156 -62.412998199462876 M 88.65699768066406 -61.65299987792967 L 88.74400329589844 -61.632999420166 L 88.83000183105469 -61.65299987792967 L 88.9000015258789 -61.708000183105455 L 88.93800354003906 -61.789001464843736 L 88.93800354003906 -61.87799835205077 L 88.90284729003906 -61.951999664306626 L 88.9000015258789 -61.958000183105455 L 88.83000183105469 -62.013000488281236 L 88.74400329589844 -62.03300094604491 L 88.65699768066406 -62.013000488281236 L 88.58799743652344 -61.958000183105455 L 88.58507537841797 -61.951999664306626 L 88.54900360107422 -61.87799835205077 L 88.54900360107422 -61.789001464843736 L 88.58799743652344 -61.708000183105455 L 88.65699768066406 -61.65299987792967 M 88.13099670410156 -61.61299896240233 L 88.06400299072266 -61.62858200073241 L 88.04499816894531 -61.632999420166 L 87.95800018310547 -61.61299896240233 L 87.88899993896484 -61.55799865722655 L 87.8499984741211 -61.478000640869126 L 87.8499984741211 -61.43999862670897 L 87.8499984741211 -61.38899993896483 L 87.88899993896484 -61.30799865722655 L 87.95800018310547 -61.25299835205077 L 88.04499816894531 -61.23300170898436 L 88.06400299072266 -61.237419128417955 L 88.13099670410156 -61.25299835205077 L 88.20099639892578 -61.30799865722655 L 88.23899841308594 -61.38899993896483 L 88.23899841308594 -61.43999862670897 L 88.23899841308594 -61.478000640869126 L 88.22293090820312 -61.51182174682616 L 88.20099639892578 -61.55799865722655 L 88.13099670410156 -61.61299896240233 M 88.13099670410156 -60.81299972534178 L 88.06400299072266 -60.82858276367186 L 88.04499816894531 -60.833000183105455 L 87.95800018310547 -60.81299972534178 L 87.88899993896484 -60.757999420166 L 87.8499984741211 -60.67800140380858 L 87.8499984741211 -60.58900070190428 L 87.88899993896484 -60.508998870849595 L 87.95800018310547 -60.45299911499022 L 88.04499816894531 -60.43299865722655 L 88.06400299072266 -60.43741989135741 L 88.13099670410156 -60.45299911499022 L 88.20099639892578 -60.508998870849595 L 88.23899841308594 -60.58900070190428 L 88.23899841308594 -60.67800140380858 L 88.20099639892578 -60.757999420166 L 88.13099670410156 -60.81299972534178 M 89.12899780273438 -59.63600158691405 L 89.08799743652344 -59.55139541625975 L 89.06600189208984 -59.506000518798814 L 89.06600189208984 -59.39199829101561 L 89.06600189208984 -59.36100006103514 L 89.12899780273438 -59.23099899291991 L 89.24199676513672 -59.14099884033202 L 89.38300323486328 -59.10800170898436 L 89.52400207519531 -59.14099884033202 L 89.63600158691406 -59.23099899291991 L 89.6989974975586 -59.36100006103514 L 89.6989974975586 -59.39199829101561 L 89.6989974975586 -59.506000518798814 L 89.63600158691406 -59.63600158691405 L 89.52400207519531 -59.72600173950194 L 89.38300323486328 -59.757999420166 L 89.24199676513672 -59.72600173950194 L 89.12899780273438 -59.63600158691405 M 88.65699768066406 -60.05300140380858 L 88.74400329589844 -60.03300094604491 L 88.83000183105469 -60.05300140380858 L 88.9000015258789 -60.109001159667955 L 88.93800354003906 -60.188999176025376 L 88.93800354003906 -60.27799987792967 L 88.9000015258789 -60.35800170898436 L 88.83000183105469 -60.412998199462876 L 88.81710052490234 -60.41600036621092 L 88.74400329589844 -60.43299865722655 L 88.67005157470703 -60.41600036621092 L 88.65699768066406 -60.412998199462876 L 88.58799743652344 -60.35800170898436 L 88.54900360107422 -60.27799987792967 L 88.54900360107422 -60.188999176025376 L 88.58799743652344 -60.109001159667955 L 88.65699768066406 -60.05300140380858 M 88.53399658203125 -58.68299865722655 L 88.06400299072266 -58.68299865722655 L 87.73500061035156 -58.68299865722655 L 87.62699890136719 -58.6590003967285 L 87.54000091552734 -58.58900070190428 L 87.49199676513672 -58.48899841308592 L 87.49199676513672 -58.37799835205077 L 87.54000091552734 -58.27799987792967 L 87.62699890136719 -58.208000183105455 L 87.73500061035156 -58.18299865722655 L 88.06400299072266 -58.18299865722655 L 88.53399658203125 -58.18299865722655 L 88.64199829101562 -58.208000183105455 L 88.72899627685547 -58.27799987792967 L 88.77220153808594 -58.368000030517564 L 88.7770004272461 -58.37799835205077 L 88.7770004272461 -58.48899841308592 L 88.72899627685547 -58.58900070190428 L 88.64199829101562 -58.6590003967285 L 88.53399658203125 -58.68299865722655 M 84.74800109863281 -58.208000183105455 L 84.83499908447266 -58.27799987792967 L 84.88300323486328 -58.37799835205077 L 84.88300323486328 -58.48899841308592 L 84.83499908447266 -58.58900070190428 L 84.74800109863281 -58.6590003967285 L 84.63999938964844 -58.68299865722655 L 83.64099884033203 -58.68299865722655 L 83.53299713134766 -58.6590003967285 L 83.44599914550781 -58.58900070190428 L 83.39800262451172 -58.48899841308592 L 83.39800262451172 -58.37799835205077 L 83.44599914550781 -58.27799987792967 L 83.53299713134766 -58.208000183105455 L 83.64099884033203 -58.18299865722655 L 84.63999938964844 -58.18299865722655 L 84.74800109863281 -58.208000183105455 M 97.34700012207031 -50.23500061035155 L 97.53099822998047 -50.19300079345702 L 97.71499633789062 -50.23500061035155 L 97.86299896240234 -50.353000640869126 L 97.94499969482422 -50.52299880981444 L 97.94499969482422 -50.71300125122069 L 97.86299896240234 -50.882999420166 L 97.71499633789062 -51.00099945068358 L 97.53099822998047 -51.04299926757811 L 97.34700012207031 -51.00099945068358 L 97.1989974975586 -50.882999420166 L 97.11699676513672 -50.71300125122069 L 97.11699676513672 -50.52299880981444 L 97.1989974975586 -50.353000640869126 L 97.34700012207031 -50.23500061035155 M 87.86399841308594 -52.401000976562486 L 88.26399993896484 -52.30899810791014 L 88.66500091552734 -52.401000976562486 L 88.98699951171875 -52.657001495361314 L 89.16500091552734 -53.02799987792967 L 89.16500091552734 -53.43999862670897 L 88.98699951171875 -53.811000823974595 L 88.66500091552734 -54.06700134277342 L 88.26399993896484 -54.1590003967285 L 87.86399841308594 -54.06700134277342 L 87.54199981689453 -53.811000823974595 L 87.36399841308594 -53.43999862670897 L 87.36399841308594 -53.02799987792967 L 87.54199981689453 -52.657001495361314 L 87.86399841308594 -52.401000976562486 M 96.57599639892578 -45.16899871826171 L 96.75199890136719 -45.127998352050774 L 96.9280014038086 -45.16899871826171 L 97.06900024414062 -45.28099822998046 L 97.14800262451172 -45.44400024414062 L 97.14800262451172 -45.62499999999999 L 97.06900024414062 -45.78799819946288 L 96.9280014038086 -45.90100097656249 L 96.75199890136719 -45.94100189208984 L 96.57599639892578 -45.90100097656249 L 96.43499755859375 -45.78799819946288 L 96.35600280761719 -45.62499999999999 L 96.35600280761719 -45.44400024414062 L 96.43499755859375 -45.28099822998046 L 96.57599639892578 -45.16899871826171 M 90.15799713134766 -45.62499999999999 L 90.11199951171875 -45.72112655639648 L 90.08000183105469 -45.78799819946288 L 89.93800354003906 -45.90100097656249 L 89.76200103759766 -45.94100189208984 L 89.58599853515625 -45.90100097656249 L 89.44499969482422 -45.78799819946288 L 89.36699676513672 -45.62499999999999 L 89.36699676513672 -45.44400024414062 L 89.44499969482422 -45.28099822998046 L 89.58599853515625 -45.16899871826171 L 89.76200103759766 -45.127998352050774 L 89.93800354003906 -45.16899871826171 L 90.08000183105469 -45.28099822998046 L 90.11199951171875 -45.34787368774413 L 90.15799713134766 -45.44400024414062 L 90.15799713134766 -45.62499999999999 M 96.57599639892578 -43.16899871826171 L 96.75199890136719 -43.127998352050774 L 96.9280014038086 -43.16899871826171 L 97.06900024414062 -43.28099822998046 L 97.14800262451172 -43.44400024414062 L 97.14800262451172 -43.62499999999999 L 97.06900024414062 -43.78799819946288 L 96.9280014038086 -43.90100097656249 L 96.75199890136719 -43.94100189208984 L 96.57599639892578 -43.90100097656249 L 96.43499755859375 -43.78799819946288 L 96.35600280761719 -43.62499999999999 L 96.35600280761719 -43.44400024414062 L 96.43499755859375 -43.28099822998046 L 96.57599639892578 -43.16899871826171 M 96.57599639892578 -41.16899871826171 L 96.75199890136719 -41.12900161743163 L 96.9280014038086 -41.16899871826171 L 97.06900024414062 -41.28200149536132 L 97.14800262451172 -41.44499969482421 L 97.14800262451172 -41.62499999999999 L 97.06900024414062 -41.78799819946288 L 96.9280014038086 -41.90100097656249 L 96.75199890136719 -41.94100189208984 L 96.57599639892578 -41.90100097656249 L 96.43499755859375 -41.78799819946288 L 96.35600280761719 -41.62499999999999 L 96.35600280761719 -41.44499969482421 L 96.43499755859375 -41.28200149536132 L 96.57599639892578 -41.16899871826171 M 90.15799713134766 -43.62499999999999 L 90.11199951171875 -43.72112655639648 L 90.08000183105469 -43.78799819946288 L 89.93800354003906 -43.90100097656249 L 89.76200103759766 -43.94100189208984 L 89.58599853515625 -43.90100097656249 L 89.44499969482422 -43.78799819946288 L 89.36699676513672 -43.62499999999999 L 89.36699676513672 -43.44400024414062 L 89.44499969482422 -43.28099822998046 L 89.58599853515625 -43.16899871826171 L 89.76200103759766 -43.127998352050774 L 89.93800354003906 -43.16899871826171 L 90.08000183105469 -43.28099822998046 L 90.11199951171875 -43.34787368774413 L 90.15799713134766 -43.44400024414062 L 90.15799713134766 -43.62499999999999 M 89.58599853515625 -41.16899871826171 L 89.76200103759766 -41.12900161743163 L 89.93800354003906 -41.16899871826171 L 90.08000183105469 -41.28200149536132 L 90.11199951171875 -41.34887313842773 L 90.15799713134766 -41.44499969482421 L 90.15799713134766 -41.62499999999999 L 90.11199951171875 -41.72112655639648 L 90.08000183105469 -41.78799819946288 L 89.93800354003906 -41.90100097656249 L 89.76200103759766 -41.94100189208984 L 89.58599853515625 -41.90100097656249 L 89.44499969482422 -41.78799819946288 L 89.36699676513672 -41.62499999999999 L 89.36699676513672 -41.44499969482421 L 89.44499969482422 -41.28200149536132 L 89.58599853515625 -41.16899871826171 M 83.14600372314453 -42.58000183105468 L 83.02200317382812 -42.03799819946288 L 83.02200317382812 -42.033000946044915 L 83.14700317382812 -41.49100112915038 L 83.49400329589844 -41.05599975585937 L 83.69439697265625 -40.95999908447265 L 83.99500274658203 -40.81600189208984 L 84.55000305175781 -40.81700134277343 L 84.84423828125 -40.95999908447265 L 85.05000305175781 -41.06000137329101 L 85.39600372314453 -41.49499893188476 L 85.51799774169922 -42.0349998474121 L 85.51799774169922 -42.03799819946288 L 85.3949966430664 -42.58000183105468 L 85.0479965209961 -43.01499938964843 L 84.5479965209961 -43.25600051879882 L 83.99199676513672 -43.25600051879882 L 83.49199676513672 -43.01499938964843 L 83.14600372314453 -42.58000183105468 z" fill="none" stroke="rgb(0,0,0)" stroke-width="0.05mm" />
</svg>