<?xml version="1.0" standalone="no"?>
<!DOCTYPE svg PUBLIC "-//W3C//DTD SVG 1.1//EN"
  "http://www.w3.org/Graphics/SVG/1.1/DTD/svg11.dtd">
<svg width="51.399993896484375mm" height="51.421436309814446mm" viewBox="81.13400268554688 -4.843608856201171 51.399993896484375 51.421436309814446" xmlns="http://www.w3.org/2000/svg" version="1.1">
	<title>svgOutput</title>
	<desc>made with tinkercad</desc>
<path d="M 129.51100158691406 -0.03700000047683704 L 129.53565979003906 1.1102230246251565e-16 L 130.2220001220703 1.0299999713897705 L 130.5760040283203 1.748000025749206 L 130.78900146484375 2.1800000667572017 L 131.07200622558594 3.016605854034423 L 131.1999969482422 3.394999980926513 L 131.4499969482422 4.653999805450439 L 131.53399658203125 5.939000129699706 L 131.53399658203125 35.8110008239746 L 131.4499969482422 37.09600067138671 L 131.1999969482422 38.35400009155273 L 131.07200622558594 38.73239517211913 L 130.78900146484375 39.56900024414062 L 130.2220001220703 40.72000122070312 L 129.52099609375 41.77199935913085 L 129.51100158691406 41.78699874877929 L 128.66700744628906 42.75099945068359 L 127.7040023803711 43.597000122070305 L 126.63899993896484 44.31000137329101 L 125.94599914550781 44.65287780761718 L 125.49099731445312 44.877998352050774 L 125.22183227539062 44.96172332763671 L 123.21916961669922 45.55043411254882 L 118.99198913574219 45.55956268310546 L 117.6729965209961 45.56042098999023 L 98.30400085449219 45.573005676269524 L 90.8843002319336 45.577827453613274 L 90.67264556884766 45.538703918457024 L 89.38999938964844 45.29000091552734 L 88.177001953125 44.877998352050774 L 87.02899932861328 44.31000137329101 L 85.96399688720703 43.597000122070305 L 85.94599914550781 43.58116912841796 L 85.00199890136719 42.75099945068359 L 84.15699768066406 41.78699874877929 L 83.44599914550781 40.72000122070312 L 82.87999725341797 39.56900024414062 L 82.46800231933594 38.35400009155273 L 82.21800231933594 37.09600067138671 L 82.13400268554688 35.8110008239746 L 82.13400268554688 32.76800155639648 L 82.13400268554688 5.939000129699706 L 82.21800231933594 4.653999805450439 L 82.46800231933594 3.394999980926513 L 82.87999725341797 2.1800000667572017 L 83.44599914550781 1.0299999713897705 L 84.1323471069336 1.1102230246251565e-16 L 84.15699768066406 -0.03700000047683704 L 85.00199890136719 -1.001999974250793 L 85.94599914550781 -1.8321704864501949 L 85.96399688720703 -1.848000049591064 L 87.02899932861328 -2.5599999427795406 L 87.72699737548828 -2.905351877212524 L 88.1281967163086 -3.1038551330566397 L 88.177001953125 -3.128000020980834 L 88.4461669921875 -3.211854934692382 L 89.50098419189453 -3.5701251029968253 L 90.94014739990234 -3.834479808807372 L 95.16732788085938 -3.843608856201171 L 122.7845687866211 -3.827956199645995 L 122.9963607788086 -3.7887022495269767 L 124.27899932861328 -3.5399999618530265 L 125.49099731445312 -3.128000020980834 L 125.94599914550781 -2.902878046035766 L 126.63899993896484 -2.5599999427795406 L 127.7040023803711 -1.848000049591064 L 127.72699737548828 -1.8277944326400752 L 128.66700744628906 -1.001999974250793 L 129.51100158691406 -0.03700000047683704 M 122.05060577392578 24.486085891723626 L 122.05715942382812 24.531995773315423 L 122.07683563232422 24.574625015258782 L 122.07793426513672 24.57600021362304 L 122.14234161376953 24.65664863586425 L 122.17266845703125 24.69190025329589 L 122.21202087402344 24.717315673828118 L 122.30643463134766 24.763341903686516 L 122.35152435302734 24.776458740234368 L 122.5038833618164 24.776458740234368 L 122.5485610961914 24.763341903686516 L 122.64297485351562 24.717315673828118 L 122.68232727050781 24.69190025329589 L 122.71266174316406 24.65664863586425 L 122.77706146240234 24.57600021362304 L 122.77816009521484 24.574625015258782 L 122.79783630371094 24.531995773315423 L 122.82144165039062 24.4299087524414 L 122.8280029296875 24.384000778198235 L 122.82144165039062 24.337680816650384 L 122.79783630371094 24.23500442504882 L 122.77816009521484 24.19237327575683 L 122.71266174316406 24.110351562499993 L 122.68232727050781 24.075099945068352 L 122.64297485351562 24.049684524536126 L 122.5485610961914 24.003658294677727 L 122.5038833618164 23.99054145812988 L 122.35152435302734 23.99054145812988 L 122.30643463134766 24.003658294677727 L 122.21202087402344 24.049684524536126 L 122.17266845703125 24.075099945068352 L 122.14234161376953 24.110351562499993 L 122.07683563232422 24.19237327575683 L 122.0653076171875 24.21735000610351 L 122.05715942382812 24.23500442504882 L 122.05060577392578 24.281324386596673 L 122.03256225585938 24.35980033874511 L 122.0270004272461 24.384000778198235 L 122.05060577392578 24.486085891723626 M 91.57539367675781 17.481676101684567 L 91.59233093261719 17.40800094604492 L 91.59333801269531 17.403629302978512 L 91.5989990234375 17.378999710083004 L 91.57539367675781 17.27691268920898 L 91.56884002685547 17.230594635009762 L 91.54916381835938 17.188373565673825 L 91.4836654663086 17.105760574340817 L 91.45333099365234 17.070508956909176 L 91.41397857666016 17.045095443725582 L 91.31956481933594 16.99965667724609 L 91.2748794555664 16.98653984069824 L 91.12252807617188 16.98653984069824 L 91.07743835449219 16.99965667724609 L 90.98302459716797 17.045095443725582 L 90.94367218017578 17.070508956909176 L 90.91333770751953 17.105760574340817 L 90.84783935546875 17.188373565673825 L 90.82816314697266 17.230594635009762 L 90.80455780029297 17.332681655883786 L 90.7979965209961 17.378999710083004 L 90.80210876464844 17.40800094604492 L 90.80455780029297 17.425319671630856 L 90.82816314697266 17.52799606323242 L 90.84783935546875 17.570625305175778 L 90.91333770751953 17.652648925781246 L 90.94367218017578 17.687900543212887 L 90.98302459716797 17.71290588378906 L 91.07743835449219 17.75834274291992 L 91.12252807617188 17.77145957946777 L 91.2748794555664 17.77145957946777 L 91.31956481933594 17.75834274291992 L 91.41397857666016 17.71290588378906 L 91.45333099365234 17.687900543212887 L 91.4836654663086 17.652648925781246 L 91.54916381835938 17.570625305175778 L 91.5606918334961 17.54565048217773 L 91.56884002685547 17.52799606323242 L 91.57539367675781 17.481676101684567 M 126.56099700927734 1.7039999961853023 L 126.83599853515625 1.748000025749206 L 126.97599792480469 1.7256000041961665 L 127.11100006103516 1.7039999961853023 L 127.36000061035156 1.5770000219345088 L 127.55699920654297 1.3799999952316284 L 127.68299865722656 1.1319999694824219 L 127.72699737548828 0.8569999933242797 L 127.68299865722656 0.5820000171661377 L 127.55699920654297 0.3339999914169312 L 127.36000061035156 0.13699999451637276 L 127.11100006103516 0.009999999776482691 L 127.04704284667969 1.1102230246251565e-16 L 126.83599853515625 -0.03299999982118595 L 126.62495422363281 1.1102230246251565e-16 L 126.56099700927734 0.009999999776482691 L 126.31300354003906 0.13699999451637276 L 126.11599731445312 0.3339999914169312 L 125.98899841308594 0.5820000171661377 L 125.94599914550781 0.8569999933242797 L 125.98899841308594 1.1319999694824219 L 126.11599731445312 1.3799999952316284 L 126.31300354003906 1.5770000219345088 L 126.56099700927734 1.7039999961853023 M 126.56099700927734 41.72800064086913 L 126.83599853515625 41.77199935913085 L 127.11100006103516 41.72800064086913 L 127.36000061035156 41.60200119018554 L 127.55699920654297 41.40499877929687 L 127.68299865722656 41.15700149536132 L 127.71440887451172 40.95999908447265 L 127.72699737548828 40.88100051879882 L 127.68299865722656 40.605998992919915 L 127.55699920654297 40.35800170898437 L 127.36000061035156 40.160999298095696 L 127.11100006103516 40.03400039672851 L 126.83599853515625 39.99100112915038 L 126.56099700927734 40.03400039672851 L 126.31300354003906 40.160999298095696 L 126.11599731445312 40.35800170898437 L 125.98899841308594 40.605998992919915 L 125.94599914550781 40.88100051879882 L 125.95830535888672 40.95999908447265 L 125.98899841308594 41.15700149536132 L 126.11599731445312 41.40499877929687 L 126.31300354003906 41.60200119018554 L 126.56099700927734 41.72800064086913 M 85.98899841308594 1.1619999408721924 L 86.01599884033203 1.2147244215011597 L 86.11599731445312 1.409999966621399 L 86.31300354003906 1.6069999933242793 L 86.56099700927734 1.7339999675750728 L 86.83599853515625 1.7779999971389766 L 87.11100006103516 1.7339999675750728 L 87.36000061035156 1.6069999933242793 L 87.55699920654297 1.409999966621399 L 87.68299865722656 1.1619999408721924 L 87.705078125 1.0240000486373901 L 87.72699737548828 0.887000024318695 L 87.68299865722656 0.6119999885559082 L 87.55699920654297 0.3639999926090241 L 87.36000061035156 0.16699999570846566 L 87.11100006103516 0.03999999910593043 L 86.85518646240234 1.1102230246251565e-16 L 86.83599853515625 -0.00300000002607692 L 86.81681060791016 1.1102230246251565e-16 L 86.56099700927734 0.03999999910593043 L 86.31300354003906 0.16699999570846566 L 86.11599731445312 0.3639999926090241 L 86.01599884033203 0.5592755675315857 L 85.98899841308594 0.6119999885559082 L 85.94599914550781 0.887000024318695 L 85.98899841308594 1.1619999408721924 M 86.56099700927734 41.75799942016601 L 86.83599853515625 41.80199813842773 L 87.11100006103516 41.75799942016601 L 87.36000061035156 41.631999969482415 L 87.55699920654297 41.43500137329101 L 87.68299865722656 41.187000274658196 L 87.71918487548828 40.95999908447265 L 87.72699737548828 40.910999298095696 L 87.68299865722656 40.636001586914055 L 87.55699920654297 40.38800048828124 L 87.36000061035156 40.19100189208984 L 87.11100006103516 40.06399917602538 L 86.83599853515625 40.02099990844726 L 86.56099700927734 40.06399917602538 L 86.31300354003906 40.19100189208984 L 86.11599731445312 40.38800048828124 L 85.98899841308594 40.636001586914055 L 85.94599914550781 40.910999298095696 L 85.9536361694336 40.95999908447265 L 85.98899841308594 41.187000274658196 L 86.11599731445312 41.43500137329101 L 86.31300354003906 41.631999969482415 L 86.56099700927734 41.75799942016601 M 120.83200073242188 23.132999420166012 L 120.97599792480469 23.132999420166012 L 120.97599792480469 22.632999420166012 L 120.83200073242188 22.632999420166012 L 120.47599792480469 22.632999420166012 L 120.47599792480469 23.132999420166012 L 120.83200073242188 23.132999420166012 M 120.97599792480469 21.13199996948242 L 120.97599792480469 20.631000518798825 L 120.47599792480469 20.631000518798825 L 120.47599792480469 21.13199996948242 L 120.97599792480469 21.13199996948242 M 120.97599792480469 19.129999160766598 L 120.97599792480469 18.629999160766598 L 120.47599792480469 18.629999160766598 L 120.47599792480469 19.129999160766598 L 120.97599792480469 19.129999160766598 M 92.6500015258789 22.632999420166012 L 92.6500015258789 23.132999420166012 L 93.1500015258789 23.132999420166012 L 93.1500015258789 22.632999420166012 L 92.6500015258789 22.632999420166012 M 92.6500015258789 20.631000518798825 L 92.6500015258789 21.13199996948242 L 93.1500015258789 21.13199996948242 L 93.1500015258789 20.631000518798825 L 92.6500015258789 20.631000518798825 M 92.6500015258789 18.629999160766598 L 92.6500015258789 19.129999160766598 L 93.1500015258789 19.129999160766598 L 93.1500015258789 18.629999160766598 L 92.6500015258789 18.629999160766598 z" fill="none" stroke="rgb(0,0,0)" stroke-width="0.05mm" />
</svg>