<?xml version="1.0" standalone="no"?>
<!DOCTYPE svg PUBLIC "-//W3C//DTD SVG 1.1//EN"
  "http://www.w3.org/Graphics/SVG/1.1/DTD/svg11.dtd">
<svg width="33.172996520996094mm" height="14.970000267028805mm" viewBox="88.85800170898438 -28.864000320434563 33.172996520996094 14.970000267028805" xmlns="http://www.w3.org/2000/svg" version="1.1">
	<title>svgOutput</title>
	<desc>made with tinkercad</desc>
<path d="M 103.8114013671875 -20.836277008056637 L 103.82915496826172 -20.816278457641598 L 103.83468627929688 -20.81233978271484 L 103.88176727294922 -20.778802871704098 L 103.91112518310547 -20.757894515991207 L 103.9218978881836 -20.749389648437496 L 103.92533111572266 -20.74777221679687 L 103.93599700927734 -20.74275398254394 L 103.96287536621094 -20.730110168457028 L 103.96571350097656 -20.728773117065426 L 104.02330780029297 -20.70167732238769 L 104.0374984741211 -20.694999694824215 L 104.05607604980469 -20.683713912963864 L 104.05729675292969 -20.683044433593746 L 104.06087493896484 -20.681083679199215 L 104.07008361816406 -20.678228378295895 L 104.21687316894531 -20.62294769287109 L 104.30926513671875 -20.60842704772949 L 104.3885726928711 -20.600212097167965 L 104.447998046875 -20.60574913024902 L 104.53335571289062 -20.613700866699215 L 104.56198120117188 -20.614841461181637 L 104.57296752929688 -20.61697387695312 L 104.57457733154297 -20.6175422668457 L 104.63076782226562 -20.63735198974609 L 104.7645263671875 -20.666570663452145 L 104.77774810791016 -20.67248725891113 L 104.90155792236328 -20.731069564819332 L 104.90619659423828 -20.73446464538574 L 104.93441009521484 -20.755140304565426 L 104.95999908447266 -20.774539947509762 L 105.04000091552734 -20.83518028259277 L 105.0737075805664 -20.873106002807614 L 105.15587615966797 -20.961559295654293 L 105.16162109375 -20.972011566162106 L 105.172607421875 -20.99200057983398 L 105.1895523071289 -21.022817611694332 L 105.24144744873047 -21.113048553466793 L 105.269287109375 -21.195255279541012 L 105.30345153808594 -21.302137374877926 L 105.31397247314453 -21.40267181396484 L 105.31951141357422 -21.469591140747067 L 105.31571960449219 -21.503999710083004 L 105.3016586303711 -21.631591796874996 L 105.29840087890625 -21.669589996337887 L 105.29658508300781 -21.67768287658691 L 105.2909164428711 -21.70298385620117 L 105.24449920654297 -21.84124946594238 L 105.23009490966797 -21.877311706542965 L 105.17877960205078 -21.97132301330566 L 105.14144134521484 -22.01600074768066 L 105.02082061767578 -22.160333633422848 L 105.01126098632812 -22.17386436462402 L 105.00707244873047 -22.176782608032223 L 104.95999908447266 -22.20960998535156 L 104.87950134277344 -22.265750885009762 L 104.7969970703125 -22.312999725341793 L 104.76807403564453 -22.321615219116207 L 104.57103729248047 -22.376592636108395 L 104.447998046875 -22.383502960205075 L 104.4197006225586 -22.385091781616207 L 104.32606506347656 -22.38571739196777 L 104.18040466308594 -22.35473251342773 L 104.13516998291016 -22.345111846923825 L 104.08753967285156 -22.331062316894528 L 104.08589172363281 -22.330293655395504 L 104.08544158935547 -22.33008003234863 L 104.08324432373047 -22.328706741333004 L 104.06668090820312 -22.31880187988281 L 103.93599700927734 -22.240640640258786 L 103.87519073486328 -22.20427322387695 L 103.86062622070312 -22.191064834594723 L 103.74220275878906 -22.07839965820312 L 103.72181701660156 -22.051635742187496 L 103.69895935058594 -22.01600074768066 L 103.61564636230469 -21.88613700866699 L 103.59498596191406 -21.84099960327148 L 103.55387115478516 -21.72035217285156 L 103.53811645507812 -21.659217834472653 L 103.53565979003906 -21.642530441284176 L 103.52242279052734 -21.55251884460449 L 103.52059936523438 -21.506595611572262 L 103.52049255371094 -21.503999710083004 L 103.5195083618164 -21.479118347167965 L 103.5250473022461 -21.389165878295895 L 103.53567504882812 -21.306386947631832 L 103.55308532714844 -21.231456756591793 L 103.57958221435547 -21.159980773925778 L 103.58612060546875 -21.14235687255859 L 103.58748626708984 -21.138675689697262 L 103.61925506591797 -21.07802581787109 L 103.62538146972656 -21.066331863403317 L 103.66836547851562 -20.99200057983398 L 103.68074798583984 -20.970588684082028 L 103.8114013671875 -20.836277008056637 M 120.98899841308594 -25.819000244140618 L 121.03099822998047 -25.364000320434563 L 121.03099822998047 -18.98299980163574 L 121.03099822998047 -17.392999649047848 L 120.98899841308594 -16.937999725341793 L 120.8550033569336 -16.472999572753903 L 120.74107360839844 -16.25300025939941 L 120.62300109863281 -16.02499961853027 L 120.29900360107422 -15.626000404357907 L 119.89900207519531 -15.300999641418453 L 119.4520034790039 -15.069000244140621 L 118.98699951171875 -14.935000419616696 L 118.53199768066406 -14.894000053405758 L 113.60399627685547 -14.894000053405758 L 102.18800354003906 -14.894000053405758 L 98.30400085449219 -14.894000053405758 L 92.35600280761719 -14.894000053405758 L 91.9020004272461 -14.935000419616696 L 91.43699645996094 -15.069000244140621 L 90.98899841308594 -15.300999641418453 L 90.58999633789062 -15.626000404357907 L 90.26499938964844 -16.02499961853027 L 90.03299713134766 -16.472999572753903 L 89.9000015258789 -16.937999725341793 L 89.88800048828125 -17.068000793457028 L 89.85800170898438 -17.392999649047848 L 89.85800170898438 -25.364000320434563 L 89.88800048828125 -25.688999176025384 L 89.9000015258789 -25.819000244140618 L 90.03299713134766 -26.28400039672851 L 90.26499938964844 -26.73200035095214 L 90.58999633789062 -27.131999969482415 L 90.98899841308594 -27.45599937438964 L 91.43699645996094 -27.68799972534179 L 91.9020004272461 -27.822000503540032 L 92.35600280761719 -27.864000320434563 L 95.19300079345703 -27.864000320434563 L 95.34400177001953 -27.864000320434563 L 98.30400085449219 -27.864000320434563 L 102.18800354003906 -27.864000320434563 L 106.63700103759766 -27.864000320434563 L 113.60399627685547 -27.864000320434563 L 118.53199768066406 -27.864000320434563 L 118.98699951171875 -27.822000503540032 L 119.4520034790039 -27.68799972534179 L 119.89900207519531 -27.45599937438964 L 120.29900360107422 -27.131999969482415 L 120.40899658203125 -26.996196746826165 L 120.62300109863281 -26.73200035095214 L 120.8550033569336 -26.28400039672851 L 120.98899841308594 -25.819000244140618 M 115.63214874267578 -16.478122711181637 L 115.6963119506836 -16.610874176025387 L 115.69483947753906 -16.63014221191406 L 115.6921157836914 -16.665735244750973 L 115.6921157836914 -16.813236236572262 L 115.67920684814453 -16.834362030029293 L 115.66323852539062 -16.860485076904293 L 115.59907531738281 -16.99397468566894 L 115.57134246826172 -17.010862350463864 L 115.55208587646484 -17.022586822509762 L 115.4363021850586 -17.11477470397949 L 115.3797378540039 -17.127536773681637 L 115.29248809814453 -17.147224426269528 L 115.23736572265625 -17.15168762207031 L 115.18643951416016 -17.130426406860348 L 115.04188537597656 -17.097974777221676 L 115.00592803955078 -17.056238174438473 L 115.0028076171875 -17.05375289916992 L 114.89013671875 -16.964050292968746 L 114.87727355957031 -16.91024017333984 L 114.8736801147461 -16.90275192260742 L 114.8131103515625 -16.77675056457519 L 114.8131103515625 -16.64180183410644 L 114.8131103515625 -16.629249572753903 L 114.82229614257812 -16.584100723266598 L 114.88645935058594 -16.451349258422848 L 114.91192626953125 -16.413024902343746 L 114.94837951660156 -16.38400077819824 L 115.0277099609375 -16.32083702087402 L 115.0660400390625 -16.295112609863278 L 115.21058654785156 -16.26192474365234 L 115.25599670410156 -16.25300025939941 L 115.39981079101562 -16.286188125610348 L 115.45336151123047 -16.299049377441403 L 115.56005859375 -16.38400077819824 L 115.56915283203125 -16.391239166259762 L 115.61115264892578 -16.42720031738281 L 115.63214874267578 -16.478122711181637 M 114.1050033569336 -21.82999992370605 L 114.1050033569336 -20.879999160766598 L 114.68800354003906 -20.879999160766598 L 114.80500030517578 -20.879999160766598 L 114.80500030517578 -21.82999992370605 L 114.68800354003906 -21.82999992370605 L 114.1050033569336 -21.82999992370605 M 118.60299682617188 -24.486999511718743 L 117.9520034790039 -24.486999511718743 L 117.9520034790039 -24.08699989318847 L 118.60299682617188 -24.08699989318847 L 118.60299682617188 -24.486999511718743 M 116.06099700927734 -24.08699989318847 L 116.06099700927734 -24.486999511718743 L 115.41100311279297 -24.486999511718743 L 115.41100311279297 -24.08699989318847 L 116.06099700927734 -24.08699989318847 M 119.20800018310547 -21.82999992370605 L 119.20800018310547 -20.879999160766598 L 119.90899658203125 -20.879999160766598 L 119.90899658203125 -21.82999992370605 L 119.20800018310547 -21.82999992370605 M 115.41100311279297 -18.22400093078613 L 115.57282257080078 -18.22400093078613 L 115.6921157836914 -18.22400093078613 L 116.06099700927734 -18.22400093078613 L 116.06099700927734 -18.431999206542965 L 116.06099700927734 -18.624000549316403 L 115.41100311279297 -18.624000549316403 L 115.41100311279297 -18.431999206542965 L 115.41100311279297 -18.22400093078613 M 118.60299682617188 -18.22400093078613 L 118.60299682617188 -18.431999206542965 L 118.60299682617188 -18.624000549316403 L 117.9520034790039 -18.624000549316403 L 117.9520034790039 -18.431999206542965 L 117.9520034790039 -18.22400093078613 L 118.60299682617188 -18.22400093078613 M 91.88999938964844 -19.3169994354248 L 92.16000366210938 -19.3169994354248 L 92.38999938964844 -19.3169994354248 L 92.38999938964844 -19.818000793457028 L 92.16000366210938 -19.818000793457028 L 91.88999938964844 -19.818000793457028 L 91.88999938964844 -19.3169994354248 M 92.38999938964844 -21.31900024414062 L 92.38999938964844 -21.81900024414062 L 91.88999938964844 -21.81900024414062 L 91.88999938964844 -21.31900024414062 L 92.38999938964844 -21.31900024414062 M 92.38999938964844 -23.319999694824215 L 92.38999938964844 -23.819999694824215 L 91.88999938964844 -23.819999694824215 L 91.88999938964844 -23.319999694824215 L 92.38999938964844 -23.319999694824215 M 97.84600067138672 -19.3169994354248 L 97.84600067138672 -19.818000793457028 L 97.34600067138672 -19.818000793457028 L 97.34600067138672 -19.3169994354248 L 97.84600067138672 -19.3169994354248 M 97.84600067138672 -21.31900024414062 L 97.84600067138672 -21.81900024414062 L 97.34600067138672 -21.81900024414062 L 97.34600067138672 -21.31900024414062 L 97.84600067138672 -21.31900024414062 M 97.84600067138672 -23.319999694824215 L 97.84600067138672 -23.819999694824215 L 97.34600067138672 -23.819999694824215 L 97.34600067138672 -23.319999694824215 L 97.84600067138672 -23.319999694824215 z" fill="none" stroke="rgb(0,0,0)" stroke-width="0.05mm" />
</svg>