<?xml version="1.0" standalone="no"?>
<!DOCTYPE svg PUBLIC "-//W3C//DTD SVG 1.1//EN"
  "http://www.w3.org/Graphics/SVG/1.1/DTD/svg11.dtd">
<svg width="47mm" height="22.000003814697266mm" viewBox="83.64399719238281 56.2319984436035 47 22.000003814697266" xmlns="http://www.w3.org/2000/svg" version="1.1">
	<title>svgOutput</title>
	<desc>made with tinkercad</desc>
<path d="M 127.14399719238281 57.2319984436035 L 127.72945404052734 57.34400177001952 L 128.06399536132812 57.40800094604491 L 128.30703735351562 57.53385543823241 L 128.51199340820312 57.63999938964842 L 128.91200256347656 57.96400070190428 L 129.0240020751953 58.10227203369139 L 129.23599243164062 58.36399841308592 L 129.46800231933594 58.81200027465819 L 129.57894897460938 59.39199829101561 L 129.6439971923828 59.7319984436035 L 129.6439971923828 59.83513259887694 L 129.6439971923828 60.68822097778319 L 129.6439971923828 61.43999862670897 L 129.6439971923828 65.53600311279295 L 129.6439971923828 73.72799682617186 L 129.6439971923828 74.73200225830077 L 129.46800231933594 75.65200042724608 L 129.40379333496094 75.77600097656249 L 129.23599243164062 76.09999847412108 L 129.0240020751953 76.36172485351561 L 128.91200256347656 76.49999999999999 L 128.51199340820312 76.82499694824217 L 128.06399536132812 77.05699920654295 L 128 77.06917572021483 L 127.14399719238281 77.23200225830077 L 126.97599792480469 77.23200225830077 L 124.9280014038086 77.23200225830077 L 122.87999725341797 77.23200225830077 L 114.68800354003906 77.23200225830077 L 112.06900024414062 77.23200225830077 L 106.49600219726562 77.23200225830077 L 102.06400299072266 77.23200225830077 L 98.30400085449219 77.23200225830077 L 90.11199951171875 77.23200225830077 L 88.06400299072266 77.23200225830077 L 88.04086303710938 77.23200225830077 L 87.59069061279297 77.23200225830077 L 87.14399719238281 77.23200225830077 L 86.2239990234375 77.05699920654295 L 86.01599884033203 76.94928741455077 L 85.7760009765625 76.82499694824217 L 85.66899871826172 76.73805999755858 L 85.3759994506836 76.49999999999999 L 85.10964965820312 76.17218017578124 L 85.0510025024414 76.09999847412108 L 84.88321685791016 75.77600097656249 L 84.81900024414062 75.65200042724608 L 84.78435516357422 75.46987915039061 L 84.6478042602539 74.75199890136717 L 84.64399719238281 74.73200225830077 L 84.64399719238281 73.72799682617186 L 84.64399719238281 65.53600311279295 L 84.64399719238281 61.43999862670897 L 84.64399719238281 60.41600036621092 L 84.64399719238281 59.7319984436035 L 84.70867156982422 59.39199829101561 L 84.81900024414062 58.81200027465819 L 84.99199676513672 58.477931976318345 L 85.0489273071289 58.368000030517564 L 85.0510025024414 58.36399841308592 L 85.3759994506836 57.96400070190428 L 85.7760009765625 57.63999938964842 L 86.01599884033203 57.515712738037095 L 86.2239990234375 57.40800094604491 L 86.55854797363281 57.34400177001952 L 87.14399719238281 57.2319984436035 L 90.11199951171875 57.2319984436035 L 98.30400085449219 57.2319984436035 L 102.06400299072266 57.2319984436035 L 112.06900024414062 57.2319984436035 L 114.68800354003906 57.2319984436035 L 122.87999725341797 57.2319984436035 L 127.14399719238281 57.2319984436035 M 128.26206970214844 58.46544265747069 L 128.2456817626953 58.45185089111327 L 128.21939086914062 58.436855316162095 L 128.11659240722656 58.368000030517564 L 128.02699279785156 58.30799865722655 L 128 58.30264282226561 L 127.97377014160156 58.29743576049803 L 127.82388305664062 58.26769638061522 L 127.77022552490234 58.257045745849595 L 127.64399719238281 58.2319984436035 L 127.55413818359375 58.25249862670897 L 127.53888702392578 58.25597763061522 L 127.50006866455078 58.264831542968736 L 127.44757080078125 58.2768096923828 L 127.3498306274414 58.29910278320311 L 127.20999908447266 58.33100128173827 L 127.16368103027344 58.368000030517564 L 127.10257720947266 58.4168128967285 L 127.0321044921875 58.473110198974595 L 126.97599792480469 58.51793289184569 L 126.9091796875 58.57131195068358 L 126.8855972290039 58.590148925781236 L 126.86199951171875 58.609001159667955 L 126.8493881225586 58.6352081298828 L 126.7315673828125 58.88000106811522 L 126.7115707397461 58.92154693603514 L 126.66899871826172 59.00999832153319 L 126.66899871826172 59.08322906494139 L 126.66899871826172 59.39199829101561 L 126.66899871826172 59.45500183105467 L 126.77432250976562 59.673828124999986 L 126.86199951171875 59.85599899291991 L 126.92230224609375 59.90399932861327 L 126.97599792480469 59.946743011474595 L 126.98026275634766 59.950134277343736 L 127.105712890625 60.049991607666 L 127.20999908447266 60.132999420166 L 127.2186508178711 60.134975433349595 L 127.3593521118164 60.1670684814453 L 127.48799896240234 60.19641494750975 L 127.64399719238281 60.2319984436035 L 127.84711456298828 60.19169616699217 L 128 60.16135787963866 L 128.02699279785156 60.155998229980455 L 128.3509979248047 59.938999176025376 L 128.5679931640625 59.61500167846678 L 128.61224365234375 59.39199829101561 L 128.6439971923828 59.2319984436035 L 128.61776733398438 59.09980392456053 L 128.6068115234375 59.04457855224608 L 128.60606384277344 59.03406906127928 L 128.59849548339844 59.00271606445311 L 128.58631896972656 58.941349029541 L 128.57415771484375 58.88000106811522 L 128.5679931640625 58.848999023437486 L 128.53713989257812 58.802921295166 L 128.5134735107422 58.76758193969725 L 128.5123748779297 58.76595306396483 L 128.51199340820312 58.76532745361327 L 128.49078369140625 58.73024749755858 L 128.43800354003906 58.64300155639647 L 128.41075134277344 58.61302185058592 L 128.40773010253906 58.60970306396483 L 128.4019012451172 58.60099792480467 L 128.3509979248047 58.52500152587889 L 128.26971435546875 58.47056198120116 L 128.26206970214844 58.46544265747069 M 126.90193939208984 75.43170928955077 L 126.92980194091797 75.51645660400389 L 126.94879913330078 75.5491256713867 L 126.97599792480469 75.59082794189452 L 127.03047180175781 75.67433929443358 L 127.11488342285156 75.75778961181639 L 127.1351547241211 75.77600097656249 L 127.16949462890625 75.8068389892578 L 127.30142974853516 75.88208007812499 L 127.32768249511719 75.90130615234374 L 127.33677673339844 75.90795898437499 L 127.34054565429688 75.9107208251953 L 127.34815216064453 75.91294097900389 L 127.48799896240234 75.96559143066405 L 127.54619598388672 75.98749542236327 L 127.55398559570312 75.98846435546874 L 127.58149719238281 75.99188995361327 L 127.66899108886719 76.00278472900389 L 127.7077407836914 76.0050811767578 L 127.7085189819336 76.00512695312499 L 127.88773345947266 75.98678588867186 L 127.92738342285156 75.98275756835936 L 128 75.96012115478514 L 128.01736450195312 75.95470428466795 L 128.10763549804688 75.9182891845703 L 128.21217346191406 75.85166168212889 L 128.2821044921875 75.80704498291014 L 128.31028747558594 75.77600097656249 L 128.38308715820312 75.69583129882811 L 128.42539978027344 75.6526412963867 L 128.4293975830078 75.64856719970702 L 128.5138702392578 75.4880905151367 L 128.54298400878906 75.44132995605467 L 128.54794311523438 75.43337249755858 L 128.5782928466797 75.33280181884764 L 128.592529296875 75.28904724121092 L 128.5952911376953 75.26399993896483 L 128.61122131347656 75.1199493408203 L 128.6130828857422 75.10055541992186 L 128.6013946533203 74.91388702392577 L 128.60110473632812 74.91061401367186 L 128.5827178955078 74.8599166870117 L 128.57684326171875 74.84374999999999 L 128.53445434570312 74.75199890136717 L 128.47300720214844 74.61900329589842 L 128.42491149902344 74.55899047851561 L 128.33102416992188 74.44995880126952 L 128.1651611328125 74.32322692871092 L 128.1361083984375 74.3031539916992 L 128.06683349609375 74.27513885498045 L 128 74.25441741943358 L 127.95347595214844 74.23999786376952 L 127.9030532836914 74.22437286376952 L 127.893310546875 74.22179412841795 L 127.89168548583984 74.2213668823242 L 127.88272094726562 74.22068786621092 L 127.76444244384766 74.20832061767577 L 127.65995788574219 74.21060943603514 L 127.63233184814453 74.21279144287108 L 127.48975372314453 74.23999786376952 L 127.48799896240234 74.24033355712889 L 127.48635864257812 74.24064636230467 L 127.47901916503906 74.2426071166992 L 127.44801330566406 74.25089263916014 L 127.38761901855469 74.28358459472655 L 127.23739624023438 74.35093688964842 L 127.21927642822266 74.35905456542967 L 127.1470718383789 74.42794036865233 L 127.09146881103516 74.47534179687499 L 127.00975036621094 74.54501342773436 L 127.00909423828125 74.54557037353514 L 126.97599792480469 74.59982299804686 L 126.94572448730469 74.64943695068358 L 126.91328430175781 74.69483947753905 L 126.8897476196289 74.73771667480467 L 126.88441467285156 74.75199890136717 L 126.86599731445312 74.80133056640624 L 126.84541320800781 74.86014556884764 L 126.82504272460938 74.97328948974608 L 126.81803894042969 75.03493499755858 L 126.8191909790039 75.16188049316405 L 126.82244873046875 75.19041442871092 L 126.83935546875 75.26399993896483 L 126.85395050048828 75.32755279541014 L 126.8561782836914 75.3350372314453 L 126.90193939208984 75.43170928955077 M 85.83269500732422 59.61837768554686 L 85.89412689208984 59.72526168823241 L 85.90064239501953 59.735553741455064 L 85.9322509765625 59.785514831542955 L 85.93849182128906 59.79159545898436 L 86.01599884033203 59.86720275878905 L 86.0265884399414 59.877529144287095 L 86.03130340576172 59.88186645507811 L 86.0324935913086 59.88296508789061 L 86.0334701538086 59.88386154174803 L 86.04071044921875 59.888339996337876 L 86.06585693359375 59.90399932861327 L 86.22152709960938 60.000949859619126 L 86.2414321899414 60.00889205932616 L 86.2939453125 60.02983474731444 L 86.35438537597656 60.05161666870116 L 86.449951171875 60.06732940673827 L 86.46472930908203 60.06975936889647 L 86.5232162475586 60.078884124755845 L 86.52742767333984 60.0795440673828 L 86.52799987792969 60.079532623291 L 86.55806732177734 60.07898330688475 L 86.6719970703125 60.07929611206053 L 86.71025848388672 60.07013702392577 L 86.77581024169922 60.054443359374986 L 86.8555679321289 60.03535079956053 L 86.8783187866211 60.030368804931626 L 86.8808822631836 60.029289245605455 L 86.88548278808594 60.02735900878905 L 86.92532348632812 60.008972167968736 L 86.9742660522461 59.98638534545897 L 86.97967529296875 59.982841491699205 L 86.98500061035156 59.9788360595703 L 86.98941040039062 59.97551345825194 L 87.01256561279297 59.95808029174803 L 87.04000091552734 59.942192077636705 L 87.1059341430664 59.90399932861327 L 87.15599822998047 59.874999999999986 L 87.1991195678711 59.83378982543944 L 87.25199890136719 59.786499023437486 L 87.26292419433594 59.77280807495116 L 87.29329681396484 59.73473739624022 L 87.3509292602539 59.65460968017577 L 87.41751861572266 59.51152038574217 L 87.42045593261719 59.50657272338866 L 87.42072296142578 59.50601959228514 L 87.42200469970703 59.502094268798814 L 87.4222183227539 59.5014190673828 L 87.4577865600586 59.39199829101561 L 87.47997283935547 59.32374191284178 L 87.48648834228516 59.29459762573241 L 87.4986801147461 59.16335296630858 L 87.49927520751953 59.13725280761717 L 87.48494720458984 59.02413940429686 L 87.4722671508789 58.952472686767564 L 87.44686126708984 58.895526885986314 L 87.44170379638672 58.88000106811522 L 87.41279602050781 58.7930450439453 L 87.37713623046875 58.73922729492186 L 87.36827087402344 58.725849151611314 L 87.30490112304688 58.622043609619126 L 87.28679656982422 58.60289382934569 L 87.25908660888672 58.57359695434569 L 87.16693115234375 58.503940582275376 L 87.0947265625 58.435451507568345 L 87.04090118408203 58.40867996215819 L 87.04000091552734 58.40823364257811 L 86.97382354736328 58.3753204345703 L 86.9466323852539 58.368000030517564 L 86.82372283935547 58.33491134643553 L 86.7330322265625 58.2968292236328 L 86.70369720458984 58.294364929199205 L 86.67122650146484 58.293857574462876 L 86.49223327636719 58.29106140136717 L 86.48081970214844 58.292026519775376 L 86.29693603515625 58.32838439941405 L 86.29161071777344 58.32986450195311 L 86.24205780029297 58.352756500244126 L 86.21533203125 58.368000030517564 L 86.06832122802734 58.45185089111327 L 86.03656005859375 58.47817993164061 L 86.01599884033203 58.49847030639647 L 85.93234252929688 58.58102416992186 L 85.90325164794922 58.61302185058592 L 85.8759994506836 58.64300155639647 L 85.7978515625 58.772190093994126 L 85.77933502197266 58.80399703979491 L 85.77392578125 58.81328964233397 L 85.76811981201172 58.83382415771483 L 85.75074768066406 58.88000106811522 L 85.7349624633789 58.92196655273436 L 85.70894622802734 59.01667022705077 L 85.70793914794922 59.03406906127928 L 85.70268249511719 59.10795593261717 L 85.69972229003906 59.149475097656236 L 85.69921875 59.156528472900376 L 85.70439147949219 59.25471115112303 L 85.72721862792969 59.363132476806626 L 85.73392486572266 59.39199829101561 L 85.75287628173828 59.473571777343736 L 85.76820373535156 59.511753082275376 L 85.77070617675781 59.517978668212876 L 85.78309631347656 59.54883956909178 L 85.83269500732422 59.61837768554686 M 86.96150207519531 74.29500579833983 L 86.82372283935547 74.25791168212889 L 86.78107452392578 74.23999786376952 L 86.7330322265625 74.21982574462889 L 86.6791763305664 74.21899414062499 L 86.56996154785156 74.21730804443358 L 86.51156616210938 74.21640777587889 L 86.48632049560547 74.21548461914061 L 86.48372650146484 74.21597290039061 L 86.35755920410156 74.23999786376952 L 86.29852294921875 74.25124359130858 L 86.29161071777344 74.25286865234374 L 86.24205780029297 74.27597045898436 L 86.10383605957031 74.35521697998045 L 86.06832122802734 74.37557983398436 L 86.03656005859375 74.40218353271483 L 86.01599884033203 74.42247009277342 L 85.93234252929688 74.50502777099608 L 85.9044418334961 74.53571319580077 L 85.8974838256836 74.54336547851561 L 85.8759994506836 74.56700134277342 L 85.83992767333984 74.62663269042967 L 85.7978515625 74.69618988037108 L 85.78271484375 74.71939849853514 L 85.76905822753906 74.75167846679686 L 85.76893615722656 74.75199890136717 L 85.73611450195312 74.84278106689452 L 85.7349624633789 74.84596252441405 L 85.71784973144531 74.9085006713867 L 85.70897674560547 74.92694854736327 L 85.70781707763672 74.92935180664061 L 85.69576263427734 74.95439147949217 L 85.66899871826172 75.01000213623045 L 85.66899871826172 75.45500183105467 L 85.86199951171875 75.85600280761717 L 86.01599884033203 75.97857666015624 L 86.20999908447266 76.13300323486327 L 86.64399719238281 76.23200225830077 L 87.0270004272461 76.15599822998045 L 87.35099792480469 75.93900299072264 L 87.4487533569336 75.7930450439453 L 87.45413208007812 75.78501892089842 L 87.46016693115234 75.77600097656249 L 87.552001953125 75.63889312744139 L 87.56800079345703 75.61499786376952 L 87.5727767944336 75.59091186523436 L 87.62580108642578 75.32370758056639 L 87.63764953613281 75.26399993896483 L 87.64399719238281 75.23200225830077 L 87.56800079345703 74.84899902343749 L 87.55552673339844 74.8303756713867 L 87.55353546142578 74.82740020751952 L 87.50303649902344 74.75199890136717 L 87.35099792480469 74.52500152587889 L 87.33119201660156 74.51173400878905 L 87.2930908203125 74.48621368408202 L 87.1917953491211 74.41837310791014 L 87.06111145019531 74.33084106445311 L 87.04000091552734 74.3167037963867 L 87.0270004272461 74.30799865722655 L 86.97095489501953 74.29688262939452 L 86.96150207519531 74.29500579833983 M 104.31500244140625 70.31500244140624 L 103.81500244140625 70.31500244140624 L 103.81500244140625 70.81500244140624 L 104.31500244140625 70.81500244140624 L 104.31500244140625 70.31500244140624 M 106.31600189208984 70.31500244140624 L 105.81600189208984 70.31500244140624 L 105.81600189208984 70.81500244140624 L 106.31600189208984 70.81500244140624 L 106.31600189208984 70.31500244140624 M 107.81700134277344 70.31500244140624 L 107.81700134277344 70.81500244140624 L 108.31700134277344 70.81500244140624 L 108.31700134277344 70.31500244140624 L 107.81700134277344 70.31500244140624 M 109.81800079345703 70.31500244140624 L 109.81800079345703 70.81500244140624 L 110.31800079345703 70.81500244140624 L 110.31800079345703 70.31500244140624 L 109.81800079345703 70.31500244140624 z" fill="none" stroke="rgb(0,0,0)" stroke-width="0.05mm" />
</svg>